PathFileType	4	(X/Y/Z)	C:/Users/beibeiliu/ov580/test_trc/User3\sequence.42_training_dense_right.trc
DataRate	CameraRate	NumFrames	NumMarkers	Units	OrigDataRate	OrigDataStartFrame	OrigNumFrames
120	120	22	19	mm	120	51	101
Frame#	Time	ThumbCMC			ThumbMCP			ThumbIP			ThumbTip			IndexMCP			IndexPIP			IndexTip			MiddleMCP			MiddlePIP			MiddleTip			RingMCP			RingPIP			RingTip			PinkyMCP			PinkyPIP			PinkyTip			BackHand1			BackHand2			BackHand3	
		X0	Y0	Z0	X1	Y1	Z1	X2	Y2	Z2	X3	Y3	Z3	X4	Y4	Z4	X5	Y5	Z5	X6	Y6	Z6	X7	Y7	Z7	X8	Y8	Z8	X9	Y9	Z9	X10	Y10	Z10	X11	Y11	Z11	X12	Y12	Z12	X13	Y13	Z13	X14	Y14	Z14	X15	Y15	Z15	X16	Y16	Z16	X17	Y17	Z17	X18	Y18	Z18	
50	0.416667	124.493	49.7166	35.4073	95.6493	33.3446	30.6811	76.2375	16.8144	20.0321	69.5769	-7.28596	4.56694	108.099	42.6386	-38.1236	82.0226	29.3107	-54.2499	66.8679	6.2784	-39.6708	121.7	25.0424	-50.9554	99.1491	7.71229	-62.6144	87.0676	-19.9307	-37.5216	132.224	-3.3204	-38.1371	111.148	-23.7696	-31.9171	112.518	-24.3068	4.88078	144.703	-16.0808	-22.9691	124.053	-30.2432	-11.5611	128.482	-24.9768	17.7043	167.63	29.1446	-10.8041	185.86	37.7728	12.6017	157.12	54.7085	10.3311	
51	0.425	115.932	58.1606	10.7979	94.5208	41.2637	-11.5527	77.0986	28.8879	-26.518	67.8556	14.0268	-46.6074	124.482	74.5131	-62.6855	108.258	75.4465	-90.4761	84.8672	54.3898	-101.047	144.484	63.5595	-73.3991	130.975	57.9087	-103.908	106.317	24.9908	-108.838	153.385	31.2487	-71.8734	129.832	9.40935	-83.8802	117.859	-10.5888	-59.8441	160.36	14.5239	-60.3662	145.701	-6.11233	-62.8712	125.717	-14.7195	-38.2205	173.624	54.5796	-28.0244	185.794	54.1267	2.0939	152.323	74.8484	-5.83033	
52	0.433333	109.707	61.2566	-4.17698	90.7032	43.5585	-25.8222	77.4122	32.0732	-47.2858	64.7797	21.4875	-62.746	124.521	86.2227	-76.5809	111.106	92.2252	-102.682	101.774	79.9209	-129.314	150.7	78.9039	-84.5818	142.072	78.1855	-113.26	133.351	55.3166	-141.563	158.582	49.1935	-83.3663	148.45	28.9694	-101.811	132.718	-0.462094	-97.7748	171.686	33.0021	-69.0423	160.006	12.6878	-82.4105	140.914	-6.93619	-76.1437	174.548	67.904	-30.9058	175.71	67.1467	2.23154	146.39	80.3697	-12.39	
53	0.441667	109.127	53.3378	1.08428	89.9972	37.5904	-20.552	77.0915	26.281	-40.7055	64.0979	16.3843	-62.0073	122.346	75.5983	-70.432	114.943	78.7575	-95.0758	108.529	77.8743	-120.645	146.986	71.001	-79.0279	146.247	68.5306	-111.284	143.875	59.5975	-138.902	163.826	46.7868	-78.3535	158.191	30.4815	-98.4257	142.664	2.68214	-108.017	179.371	32.7919	-61.7098	174.973	13.5896	-78.0873	158.012	-5.77122	-84.6888	172.832	67.0083	-21.5793	173.951	66.4329	7.28765	140.48	78.3099	-7.06589	
54	0.45	121.304	48.9824	7.36604	104.39	34.2813	-13.1568	86.9992	23.9643	-37.1	76.1288	13.9767	-50.7661	130.924	68.7906	-69.9926	120.521	70.0169	-94.15	116.29	70.091	-114.452	156.611	64.1279	-76.2089	154.301	60.4459	-105.154	150.171	56.0776	-130.613	172.61	45.3251	-71.2248	174.298	30.9066	-92.1304	166.035	9.34606	-108.578	191.722	32.1205	-57.3774	189.302	14.4086	-73.9213	180.184	-9.72308	-85.3045	178.194	65.322	-18.2518	183.568	65.3666	13.8763	148.372	75.6632	-4.11445	
55	0.458333	145.925	49.5675	3.60469	128.928	35.8102	-19.9388	112.045	24.7509	-37.7293	102.383	14.051	-58.5902	157.493	67.752	-70.6194	152.144	66.1711	-95.9595	146.945	64.3389	-117.545	186.858	66.3522	-74.8093	185.264	63.1785	-103.122	184.955	53.8433	-135.522	207.785	49.5767	-66.0241	204.505	38.5529	-94.639	207.791	17.4167	-113.236	222.055	36.3813	-51.3458	226.974	18.5534	-71.4083	219.905	1.59028	-87.2965	206.108	67.528	-16.772	206.334	66.1119	15.9402	170.745	75.5225	-4.17841	
56	0.466667	179.172	40.5823	-5.44338	162.887	25.0245	-28.7072	149.757	15.5099	-50.8008	139.836	4.56137	-68.8653	201.872	57.643	-77.914	193.969	55.8743	-101.318	190.632	48.5962	-128.801	229.32	59.4148	-76.1949	232.63	56.0194	-105.012	230.444	38.2362	-136.02	246.034	45.4868	-66.4808	255.315	35.4176	-94.7183	254.12	11.8061	-112.196	260.906	29.5685	-51.8973	270.876	13.0117	-70.7799	264.26	-10.6961	-83.6237	242.5	55.3278	-15.4956	239.082	57.167	13.0651	209.395	64.2292	-9.54001	
57	0.475	197.341	16.5429	-8.69479	183.85	-1.30374	-35.1889	171.205	-15.211	-58.2839	171.233	-27.5921	-72.2194	221.304	30.9895	-79.7411	219.153	26.0028	-108.56	217.049	10.2368	-132.551	252.556	33.3284	-78.5971	253.941	25.6693	-111.974	252.379	-5.10386	-128.366	270.22	21.882	-65.8712	276.368	10.9552	-94.3591	266.757	-20.0377	-104.287	285.554	6.26642	-51.9003	287.193	-9.57942	-71.742	273.57	-39.0256	-75.608	258.05	34.1422	-18.8035	257.833	36.0902	7.4563	228.553	41.5577	-13.8082	
58	0.483333	197.091	-0.715493	-4.70977	183.473	-20.8217	-25.8181	175.57	-36.4749	-49.4559	185.535	-53.1093	-68.1751	219.438	7.11521	-74.7673	211.519	-1.24101	-105.225	208.092	-21.6001	-122.474	245.146	6.00065	-75.1532	245.222	-14.8271	-105.672	230.303	-50.7235	-98.0449	258.779	-4.33655	-65.8214	262.521	-29.3355	-86.4398	246.65	-53.3868	-74.6206	275.742	-19.281	-48.9524	271.05	-41.9935	-65.0409	252.777	-62.1317	-50.0819	258.539	11.1539	-14.2909	256.506	17.8677	15.1524	226.293	23.8714	-8.27905	
59	0.491667	180.879	1.35122	7.56665	161.871	-16.7735	-16.7451	164.934	-33.7762	-42.2801	172.341	-49.7311	-56.9127	194.374	12.7696	-65.0856	190.711	4.44582	-93.7102	184.926	-17.1901	-113.059	215.984	-2.51089	-73.4364	205.319	-29.269	-89.9086	194.482	-52.6981	-62.7932	231.881	-16.7366	-62.3972	222.121	-45.8153	-70.0257	210.885	-54.8629	-40.4877	246.054	-27.7318	-45.7325	232.959	-52.5124	-52.1709	219.076	-55.2338	-26.8628	239.273	8.5958	-14.5203	241.861	13.9825	19.9137	211.857	24.5958	1.35407	
60	0.5	154.614	16.2769	19.4244	141.189	-1.57256	-7.01977	136.029	-18.3086	-32.8253	147.826	-35.71	-50.8363	171.862	32.4334	-57.959	162.362	27.7707	-87.2515	153.893	13.5246	-109.396	181.318	9.47777	-61.8054	163.331	-18.6617	-70.5394	163.742	-33.8163	-29.8178	195.168	-11.514	-55.8943	181.915	-36.0669	-50.1361	177.645	-36.0678	-16.392	211.366	-19.7966	-41.8761	189.558	-38.596	-36.8816	190.5	-40.306	-8.82198	217.408	21.462	-8.72352	221.18	23.0452	23.5403	189.674	38.1489	6.56439	
61	0.508333	135.257	24.8114	21.298	114.823	4.85986	0.656473	113.145	-14.1743	-26.467	130.161	-28.7676	-38.9656	152.15	40.0096	-47.8798	151.507	34.7952	-79.4777	143.549	28.4314	-101.357	161.78	9.63024	-52.2266	138.475	-17.9146	-52.9129	138.397	-20.6472	-13.7314	169.288	-5.07033	-43.3959	155.292	-29.835	-36.2902	154.016	-28.0132	-1.47855	182.796	-14.6033	-34.615	169.153	-34.2537	-25.1922	165.282	-25.8317	7.85113	196.467	26.5816	-4.05395	200.856	29.1448	28.4069	167.297	46.8124	13.8776	
62	0.516667	122.862	14.495	24.062	106.888	-10.6532	4.95604	104.802	-34.5468	-19.6929	120.886	-52.3304	-27.7013	146.545	14.3864	-46.3916	146.322	8.56515	-71.7757	143.504	4.42089	-99.277	150.714	-19.9892	-47.3509	129.31	-42.0629	-38.2885	129.982	-31.8858	2.11198	163.256	-29.9669	-30.0844	140.441	-49.3788	-15.0758	140.362	-32.8488	16.4159	176.902	-38.7322	-18.8601	153.536	-49.9493	-5.18968	150.166	-30.146	18.1863	185.518	11.6095	3.08964	190.814	18.5095	34.6949	158.063	30.8515	12.4606	
63	0.525	112.847	3.01816	27.9304	97.1701	-24.3427	13.7247	91.7739	-50.0484	-3.62087	111.304	-72.6438	-10.8783	133.732	-9.123	-42.321	127.232	-14.2974	-69.4309	131.562	-25.0078	-91.1959	139.324	-41.2826	-33.6055	118.857	-62.5962	-23.1772	119.983	-42.4619	16.0032	151.41	-49.9513	-16.627	132.135	-65.7122	1.89496	129.585	-44.1154	26.3595	163.975	-56.8105	-4.03402	141.659	-63.0626	8.45961	138.192	-39.8623	29.8242	175.964	-4.13544	2.78729	179.727	9.00018	36.3624	146.053	18.5548	13.2109	
64	0.533333	100.96	12.255	42.9443	78.7749	-18.3283	26.0489	72.5582	-43.1523	14.1122	90.4666	-64.3135	0.85847	100.07	2.30438	-33.7093	89.887	-7.05425	-60.5718	88.2834	-15.1402	-81.5761	108.984	-30.4212	-29.5045	96.1002	-55.7325	-14.121	98.5377	-37.7867	21.4479	126.447	-41.6377	-14.505	112.145	-59.2026	10.9495	112.294	-38.1738	32.0128	140.547	-47.7121	-4.36725	122.768	-55.824	15.9936	125.689	-33.8819	36.5203	155.712	2.62415	1.938	165.811	17.2302	32.2728	130.343	26.4431	19.2329	
65	0.541667	85.995	23.7395	53.5084	66.8304	-1.9218	37.4344	54.9833	-22.907	19.0491	66.6381	-40.0038	1.45053	69.5454	31.216	-19.5026	54.9482	26.0719	-44.274	43.2058	24.9478	-61.8588	81.5339	-2.50808	-29.9766	69.3278	-28.1526	-18.5846	79.473	-23.5413	18.6698	96.314	-13.883	-18.631	88.3876	-35.7258	0.918617	96.7247	-20.1585	29.715	114.456	-21.8421	-13.4593	105.33	-35.9216	9.53942	110.975	-18.8254	29.4639	133.142	28.0417	4.81745	147.046	34.5975	34.3232	112.076	45.7944	25.7741	
66	0.55	77.9343	32.1002	58.8752	57.0269	12.7058	39.4621	42.0352	-1.37891	12.4416	53.3664	-11.7984	-8.203	56.0931	59.5675	-10.7724	37.9542	64.4918	-25.8705	20.7576	67.3518	-48.6894	67.8394	34.4083	-25.2852	53.8444	3.56052	-25.5669	72.6048	-5.06564	10.4447	83.1184	14.5672	-24.7145	78.1693	-12.4009	-9.06904	88.2051	-5.97182	19.2858	102.011	8.27933	-21.9708	92.8721	-12.6273	-8.92476	106.267	-5.84887	20.4471	122.412	49.472	5.77375	138.668	46.1595	35.2081	103.618	58.3844	39.4353	
67	0.558333	79.4934	41.8172	54.8161	59.103	26.7823	30.1563	49.5132	16.7262	1.63898	54.3824	4.68647	-18.4328	72.7699	74.8026	-16.052	56.6462	82.4658	-36.7927	46.9018	85.3563	-60.7347	76.568	48.6676	-32.0901	64.0648	21.4479	-36.586	73.0241	5.23434	-2.03027	97.8617	31.2249	-28.264	82.8258	3.79847	-21.9593	91.055	3.74887	10.6326	113.889	18.3436	-25.9552	95.3494	-1.39401	-12.4911	105.693	0.531852	14.0812	131.786	55.4031	11.7205	147.683	48.9919	40.3288	107.967	67.3548	38.1499	
68	0.566667	94.527	49.3361	42.0366	76.5273	33.9861	18.9371	61.8113	19.6333	-8.80858	71.4979	2.5487	-27.5398	110.43	65.578	-31.0656	107.124	68.95	-57.167	100.298	71.4407	-82.6264	112.402	35.4237	-44.5206	92.2561	12.9462	-45.0358	87.5255	3.03424	-6.83492	124.507	17.0593	-32.8974	102.002	-2.11749	-24.8593	101.797	4.63344	10.3577	134.883	5.26921	-23.9917	114.629	-7.54642	-16.3775	114.554	1.82582	15.5471	153.614	46.0956	10.6311	161.642	42.6226	38.9001	133.546	63.3934	27.1958	
69	0.575	120.412	45.9999	23.6964	99.4736	29.352	5.33091	89.2481	7.46334	-19.7464	95.5348	-13.9325	-26.3776	146.797	40.2887	-47.8369	149.015	35.1942	-69.8924	153.232	30.8247	-92.2673	144.08	9.04991	-45.6588	117.74	-10.557	-45.2278	109.446	-9.37797	-5.97991	151.778	-6.54814	-28.6067	124.999	-20.4222	-22.0586	122.707	-7.96216	11.3908	156.35	-16.8707	-17.2059	135.794	-29.0195	-6.65501	132.394	-11.3847	17.4138	180.625	25.4829	7.40345	178.799	36.1931	40.9969	156.026	54.9135	19.9675	
70	0.583333	141.865	37.3347	17.7201	122.287	16.4555	-4.13216	111.049	-6.35585	-24.7557	121.769	-31.707	-28.6127	178.703	16.1247	-50.7154	181.217	11.0838	-72.0758	190.21	4.954	-95.6128	174.188	-13.4845	-42.8337	145.123	-28.7056	-45.8382	132.121	-21.0674	-9.04306	174.885	-22.777	-25.9772	147.873	-36.6426	-19.4952	139.716	-16.128	7.39666	180.214	-33.8876	-12.7766	154.416	-39.1512	-2.18304	149.643	-19.3166	14.5802	202.096	10.3053	8.0343	199.52	23.4698	36.5631	182.407	42.5185	11.6887	
71	0.591667	159.816	38.9385	13.4213	139.517	22.6144	-10.6993	139.413	-3.57304	-31.5195	148.725	-28.9397	-37.6476	202.558	27.1109	-48.9882	211.125	18.9588	-72.6209	217.137	17.6572	-93.1166	195.351	-5.41362	-48.7939	170.478	-23.1573	-51.4753	152.098	-12.9306	-13.7445	197.605	-19.1163	-29.6908	173.902	-34.1737	-22.5113	161.813	-12.5112	4.66401	204.836	-29.3217	-12.645	178.767	-36.2139	-12.3988	170.689	-19.5805	9.13531	222.975	15.6724	12.7746	214.344	26.3769	43.7462	197.307	44.3729	17.1656	
